# xmcd
#
# Track frame offsets: 
#        150
#        26092
#        43638
#        71266
#        94257
#        122789
#        140244
#        167752
#        189437
#        219837
#        239529
#        274977
#        297224
#        322171
#        337893
#
# Disc length: 4800 seconds
#
# Revision: 0
# Processed by: cddbd v1.5.2PL0 Copyright (c) Steve Scherf et al.
# Submitted via: ExactAudioCopy v0.95a5
#
DISCID=e812be0f
DTITLE=Various Artist - Black Pure Blues CD-5
DYEAR=2005
DGENRE=Blues
TTITLE0=LONNY BROOCKS - Get Through to You
TTITLE1=CLARENCE "Gatemouth" BROWN - Lie No Better
TTITLE2=MIGHTY MO RODGERS - Welcome to the Faultline
TTITLE3=LUCKY PETERSON - Compared to That
TTITLE4=MELVIN TAYLOR - Blue Jean Blues
TTITLE5=BILLY BRANCH - Highway Blues
TTITLE6=SOLOMON BURKE - Flesh and Blood
TTITLE7=BERNARD ELLISON - Help Me Through the Day
TTITLE8=BOBBY BLUE BLAND - I'm a Blues Man
TTITLE9=EDDIE KING - How Long Are You Going to Be Gone
TTITLE10=LIL' ED and BLUES IMPERIALS - I Still Love You
TTITLE11=JAMES BLOOD ULMER - Double Trouble
TTITLE12=SMOKEHOUSE - Hoodoo Lover
TTITLE13=MUDDY WATERS - Blind Man Blues
TTITLE14=RONDO'S BLUES DELUXE - I've Got to Leave This Woman
EXTD=
EXTT0=
EXTT1=
EXTT2=
EXTT3=
EXTT4=
EXTT5=
EXTT6=
EXTT7=
EXTT8=
EXTT9=
EXTT10=
EXTT11=
EXTT12=
EXTT13=
EXTT14=
PLAYORDER=
